<?xml version="1.0" encoding="UTF-8" standalone="no"?>
<svg width="217px" height="62px" viewBox="0 0 217 62" version="1.1" xmlns="http://www.w3.org/2000/svg" xmlns:xlink="http://www.w3.org/1999/xlink" xmlns:sketch="http://www.bohemiancoding.com/sketch/ns">
    <!-- Generator: Sketch 3.4.2 (15857) - http://www.bohemiancoding.com/sketch -->
    <title>mozilla-logo</title>
    <desc>Created with Sketch.</desc>
    <defs></defs>
    <g id="Page-1" stroke="none" stroke-width="1" fill="none" fill-rule="evenodd" sketch:type="MSPage">
        <g id="mozilla-logo" sketch:type="MSArtboardGroup" fill="#FFFFFF">
            <g id="mozilla-clubs-logo" sketch:type="MSLayerGroup">
                <path d="M0,19.16617 L9.19746774,16.67137 C9.88204839,17.72977 10.1799677,18.63697 10.566629,20.60257 C13.2288871,18.03217 16.4996613,16.67137 20.0683548,16.67137 C23.2630645,16.67137 25.9253226,17.72977 27.9727258,19.84657 C28.5051774,20.36947 28.733371,20.67817 29.4940161,21.73657 C33.0690484,18.10777 36.2637581,16.67137 40.523371,16.67137 C43.5596129,16.67137 46.4500645,17.57857 48.1995484,19.09057 C50.3990806,20.98057 51.09,23.24227 51.09,28.53427 L51.09,56.04007 L41.2016129,56.04007 L41.2016129,30.49987 C41.2016129,25.88827 40.6691613,24.98107 38.0069032,24.98107 C36.1052903,24.98107 33.449371,26.26627 31.2435,28.23187 L31.2435,56.04007 L21.5896452,56.04007 L21.5896452,30.87787 C21.5896452,26.03947 20.9050645,24.90547 18.0906774,24.90547 C16.1954032,24.90547 13.602871,25.88827 11.4033387,27.85387 L11.4033387,56.04007 L1.44522581,56.04007 L1.44522581,29.06347 C1.44522581,23.47537 1.06490323,21.05617 0,19.16617" id="Fill-1" sketch:type="MSShapeGroup"></path>
                <path d="M72.7030984,24.07576 C70.2690339,24.07576 68.2976952,25.58776 67.4609855,28.00696 C66.7700661,30.04186 66.3960823,32.76346 66.3960823,36.61906 C66.3960823,41.07316 66.8461306,44.39956 67.689179,46.36516 C68.6019532,48.48196 70.87755,49.54036 72.8552274,49.54036 C77.2669694,49.54036 79.1685823,45.60916 79.1685823,36.46786 C79.1685823,31.25776 78.4776629,27.85576 77.1085016,26.11696 C76.1260016,24.83176 74.5286468,24.07576 72.7030984,24.07576 M72.5573081,16.59766 C78.103679,16.59766 82.4330177,18.48136 85.7798565,22.41256 C88.8985016,26.04136 90.2676629,30.26866 90.2676629,36.54346 C90.2676629,43.18996 88.7400339,47.72596 85.3995339,51.50596 C82.4330177,54.83236 78.5600661,56.86726 72.5573081,56.86726 C61.9843403,56.86726 55.0688081,49.01116 55.0688081,36.84586 C55.0688081,24.68056 62.0604048,16.59766 72.5573081,16.59766" id="Fill-3" sketch:type="MSShapeGroup"></path>
                <path d="M93.0256355,17.5792 L121.917474,17.5792 L121.917474,24.5281 L104.733232,49.0099 L122.602055,49.0099 L120.16799,56.0344 L91.5106839,56.0344 L91.5106839,49.7596 L109.823216,24.6793 L93.0256355,24.6793 L93.0256355,17.5792 L93.0256355,17.5792 Z" id="Fill-5" sketch:type="MSShapeGroup"></path>
                <path d="M126.260124,18.03154 L136.446431,16.44394 L136.446431,56.03944 L126.260124,56.03944 L126.260124,18.03154 L126.260124,18.03154 Z M131.508576,0.42934 C134.92514,0.42934 137.669802,3.22024 137.669802,6.69784 C137.669802,10.17544 134.849076,12.96634 131.356447,12.96634 C127.939882,12.96634 125.119156,10.17544 125.119156,6.69784 C125.119156,3.22024 128.009608,0.42934 131.508576,0.42934 L131.508576,0.42934 L131.508576,0.42934 Z" id="Fill-7" sketch:type="MSShapeGroup"></path>
                <path d="M152.426318,0.12505 C152.80664,2.24185 152.958769,4.73035 152.958769,10.17355 L152.958769,40.32535 C152.958769,46.97185 153.034834,47.87905 153.637011,48.93745 C154.023673,49.61155 154.860382,49.99585 155.697092,49.99585 C156.077415,49.99585 156.299269,49.99585 156.831721,49.84465 L158.587544,55.89265 C156.831721,56.56675 154.701915,56.94475 152.502382,56.94475 C148.166705,56.94475 144.667737,54.90355 143.457044,51.65905 C142.696398,49.68715 142.537931,48.48385 142.537931,42.97135 L142.537931,14.10475 C142.537931,9.03955 142.39214,5.93995 142.005479,2.46865 L152.426318,0.12505 L152.426318,0.12505 Z" id="Fill-9" sketch:type="MSShapeGroup"></path>
                <path d="M169.845092,0.12505 C170.225415,2.24185 170.377544,4.73035 170.377544,10.17355 L170.377544,40.32535 C170.377544,46.97185 170.453608,47.87905 171.055785,48.93745 C171.442447,49.61155 172.279156,49.99585 173.115866,49.99585 C173.496189,49.99585 173.718044,49.99585 174.250495,49.84465 L176.006318,55.89265 C174.250495,56.56675 172.120689,56.94475 169.921156,56.94475 C165.585479,56.94475 162.086511,54.90355 160.875818,51.65905 C160.115173,49.68715 159.956705,48.48385 159.956705,42.97135 L159.956705,14.10475 C159.956705,9.03955 159.810915,5.93995 159.424253,2.46865 L169.845092,0.12505 L169.845092,0.12505 Z" id="Fill-11" sketch:type="MSShapeGroup"></path>
                <path d="M198.969561,39.1126 L198.513174,39.1126 C191.445513,39.1126 189.011448,40.3978 189.011448,45.0094 C189.011448,48.0271 190.913061,50.0683 193.499255,50.0683 C195.400868,50.0683 197.296142,49.0855 198.817432,47.4223 L198.969561,39.1126 L198.969561,39.1126 Z M178.977271,21.9577 C181.481061,20.3701 182.545965,19.8472 185.284287,18.7888 C189.081174,17.2012 192.358287,16.5208 195.933319,16.5208 C202.468529,16.5208 206.956335,18.94 208.471287,23.2429 C209.003739,24.8305 209.155868,26.0401 209.155868,30.1981 L208.927674,43.1887 L208.927674,43.8691 C208.927674,48.0271 209.612255,49.6147 212.572432,51.8071 L207.17819,58 C204.826529,57.0235 202.696723,55.2784 201.707884,53.3191 C200.262658,54.6799 200.110529,54.8311 199.349884,55.3603 C197.448271,56.7211 194.709948,57.4708 191.521577,57.4708 C182.850223,57.4708 178.140561,53.0923 178.140561,45.3811 C178.140561,36.3154 184.447577,32.0881 196.839755,32.0881 C197.6004,32.0881 198.056787,32.0881 199.12169,32.1574 L199.12169,30.5761 C199.12169,26.2669 198.291319,24.8305 194.564158,24.8305 C191.293384,24.8305 187.490158,26.4181 183.30661,29.2153 L178.977271,21.9577 L178.977271,21.9577 Z" id="Fill-13" sketch:type="MSShapeGroup"></path>
            </g>
        </g>
    </g>
</svg>